<svg width="30" height="23" viewBox="0 0 30 23" fill="none" xmlns="http://www.w3.org/2000/svg">
<mask id="mask0_667_1310" style="mask-type:luminance" maskUnits="userSpaceOnUse" x="0" y="0" width="30" height="23">
<rect width="30" height="22.5" rx="-1.875" fill="white"/>
</mask>
<g mask="url(#mask0_667_1310)">
<path fill-rule="evenodd" clip-rule="evenodd" d="M0 0H30V22.5H0V0Z" fill="#F50100"/>
<path fill-rule="evenodd" clip-rule="evenodd" d="M14.8899 14.0454C14.8012 14.0312 14.7145 14.0108 14.6301 13.9846C13.3455 14.9837 12.1081 15.6619 10.9114 16.0132C10.4146 16.159 9.89364 15.8745 9.74782 15.3777C9.602 14.8809 9.88653 14.3599 10.3833 14.2141C11.1226 13.9971 11.9103 13.607 12.7434 13.0409C12.1958 13.1291 11.6284 13.2257 11.2881 13.2985C11.0097 13.358 10.6754 13.5305 10.3552 13.6957L10.3552 13.6957C9.73129 14.0176 9.16077 14.312 9.16077 13.6899C9.16077 12.7485 9.70843 12.467 10.7247 12.0415C11.4722 11.7285 11.944 11.738 12.3985 11.7473H12.3985H12.3985H12.3985H12.3985H12.3986H12.3986H12.3986H12.3986H12.3986H12.3986C12.5619 11.7506 12.7229 11.7539 12.8938 11.7421C12.9895 11.7355 13.0922 11.7244 13.1977 11.7101L13.1668 11.5347C13.0722 11.5224 12.9801 11.5127 12.8938 11.5068C12.7229 11.495 12.5619 11.4983 12.3986 11.5016H12.3986H12.3986H12.3986H12.3986H12.3986H12.3986H12.3985H12.3985H12.3985H12.3985H12.3985C11.944 11.5109 11.4722 11.5204 10.7247 11.2074C9.70843 10.7819 9.16077 10.5004 9.16077 9.55899C9.16077 8.93691 9.73129 9.23129 10.3552 9.5532L10.3552 9.5532L10.3552 9.5532C10.6754 9.71844 11.0097 9.89092 11.2881 9.95045C11.6691 10.0319 12.3346 10.1432 12.9384 10.2392L12.9237 10.1561C12.7989 10.0844 12.6827 10.0022 12.5815 9.90778C12.1601 9.51456 11.8157 9.44902 11.3881 9.36765C11.103 9.31338 10.7808 9.25208 10.3742 9.08183C9.35801 8.65631 8.74603 7.82486 8.74603 6.88347C8.74603 6.27234 9.27291 6.66877 9.90014 7.14069C10.2391 7.39573 10.6074 7.67283 10.9377 7.82486C11.2633 7.97474 11.5959 8.09532 11.9002 8.2056C12.212 8.31864 12.4941 8.42087 12.7081 8.53275C12.7122 8.49137 12.7176 8.45036 12.7244 8.40974C12.6118 8.32868 12.5147 8.23266 12.4417 8.11893C11.9433 7.34267 11.2746 7.06266 10.2646 6.63978L10.2534 6.63508C9.23716 6.20956 8.62518 5.37812 8.62518 4.43672C8.62518 3.8256 9.15206 4.22202 9.7793 4.69394C10.1183 4.94899 10.4866 5.22608 10.8168 5.37812C11.7582 5.81146 12.482 6.18439 12.9419 7.0606C13.0315 7.23124 13.123 7.35069 13.2124 7.43243C13.3275 7.3106 13.4589 7.20397 13.6033 7.11623C13.4094 5.71417 13.0816 5.01015 12.7715 4.95246C12.2625 4.85776 11.9266 4.36833 12.0213 3.8593C12.116 3.35027 12.6054 3.01439 13.1145 3.10909C14.3671 3.34215 15.0785 4.50453 15.4131 6.54018C15.7478 4.50453 16.4591 3.34215 17.7118 3.10909C18.2208 3.01439 18.7103 3.35027 18.805 3.8593C18.8997 4.36833 18.5638 4.85776 18.0548 4.95246C17.7455 5.01 17.4185 5.71055 17.2245 7.10541C17.3894 7.17632 17.5412 7.26999 17.6766 7.38201C17.7497 7.30376 17.8236 7.19902 17.8963 7.0606C18.3562 6.18439 19.0799 5.81146 20.0213 5.37812C20.3516 5.22608 20.7199 4.94899 21.0589 4.69394C21.6861 4.22202 22.213 3.8256 22.213 4.43672C22.213 5.37812 21.601 6.20956 20.5848 6.63508L20.5735 6.63978C19.5636 7.06266 18.8949 7.34267 18.3965 8.11893C18.3611 8.17405 18.3201 8.22501 18.2743 8.27212C18.2918 8.32826 18.3067 8.38541 18.3189 8.44344C18.4997 8.36462 18.7112 8.28798 18.9384 8.2056C19.2427 8.09532 19.5754 7.97474 19.9009 7.82486C20.2312 7.67283 20.5995 7.39573 20.9385 7.14069C21.5657 6.66877 22.0926 6.27234 22.0926 6.88347C22.0926 7.82486 21.4806 8.65631 20.4644 9.08183C20.0578 9.25208 19.7356 9.31338 19.4505 9.36765C19.0229 9.44902 18.6785 9.51456 18.2571 9.90778C18.228 9.93489 18.1977 9.96101 18.1663 9.98616L18.1236 10.2033C18.6622 10.1164 19.2157 10.0219 19.5501 9.95045C19.8285 9.89092 20.1628 9.71843 20.483 9.5532C21.1069 9.23129 21.6774 8.93691 21.6774 9.55899C21.6774 10.5004 21.1297 10.7819 20.1135 11.2074C19.3659 11.5204 18.8942 11.5109 18.4397 11.5016H18.4397H18.4397H18.4396H18.4396H18.4396H18.4396H18.4396C18.2763 11.4983 18.1152 11.495 17.9444 11.5068C17.9188 11.5085 17.8927 11.5106 17.8661 11.513L17.8231 11.7318C17.8645 11.7359 17.9051 11.7394 17.9444 11.7421C18.1152 11.7539 18.2763 11.7506 18.4396 11.7473H18.4396H18.4396H18.4396H18.4397H18.4397H18.4397C18.8942 11.738 19.3659 11.7285 20.1135 12.0415C21.1297 12.467 21.6774 12.7485 21.6774 13.6899C21.6774 14.312 21.1069 14.0176 20.483 13.6957L20.483 13.6957C20.1628 13.5305 19.8285 13.358 19.5501 13.2985C19.2258 13.2291 18.6953 13.1381 18.1722 13.0534C18.9986 13.6128 19.7801 13.9987 20.5139 14.2141C21.0107 14.3599 21.2952 14.8809 21.1494 15.3777C21.0036 15.8745 20.4826 16.159 19.9858 16.0132C18.7984 15.6647 17.5709 14.9942 16.2971 14.0078C16.2448 14.0215 16.1917 14.033 16.1379 14.0422C16.3668 15.0629 18.1584 15.9051 18.1584 15.9051C18.1584 15.9051 15.8699 20.3087 15.5069 20.3087C15.1438 20.3087 12.7098 15.9051 12.7098 15.9051C13.9841 15.4317 14.6472 14.4731 14.8899 14.0454Z" fill="#1A1A1A"/>
</g>
</svg>
