<svg width="30" height="23" viewBox="0 0 30 23" fill="none" xmlns="http://www.w3.org/2000/svg">
<mask id="mask0_667_1360" style="mask-type:luminance" maskUnits="userSpaceOnUse" x="0" y="0" width="30" height="23">
<rect width="30" height="22.5" fill="white"/>
</mask>
<g mask="url(#mask0_667_1360)">
<path fill-rule="evenodd" clip-rule="evenodd" d="M0 0V22.5H30V0H0Z" fill="#FFD221"/>
<mask id="mask1_667_1360" style="mask-type:luminance" maskUnits="userSpaceOnUse" x="0" y="0" width="30" height="23">
<path fill-rule="evenodd" clip-rule="evenodd" d="M0 0V22.5H30V0H0Z" fill="white"/>
</mask>
<g mask="url(#mask1_667_1360)">
<path d="M-2.87521 9.95176L-0.992723 5.65887L31.6573 19.9763L29.7748 24.2692L-2.87521 9.95176Z" fill="#313131"/>
<path d="M-2.82852 5.22158L-0.94682 0.928345L33.3269 15.9503L31.4452 20.2436L-2.82852 5.22158Z" fill="#FAF9F9"/>
<path fill-rule="evenodd" clip-rule="evenodd" d="M15 2.70676C14.4822 2.70676 14.0625 3.12649 14.0625 3.64426V7.0458C13.7429 6.88971 13.3293 6.74973 12.874 6.74973C11.8449 6.74973 10.6879 8.18968 10.6879 8.18968C10.6879 8.18968 12.5994 8.24166 14.0625 9.6929V14.8939C12.4443 14.466 11.7492 12.8184 11.9319 9.45085L9.12348 9.29855C8.83027 14.7053 10.8272 17.8218 15.0391 17.8218C19.2294 17.8218 21.2955 14.7336 21.1557 9.33827L18.3442 9.41113C18.4333 12.85 17.6485 14.5182 15.9375 14.9146V9.51716C17.3712 8.23738 19.1254 8.18968 19.1254 8.18968C19.1254 8.18968 17.9683 6.74973 16.9392 6.74973C16.5682 6.74973 16.2249 6.84269 15.9375 6.96158V3.64426C15.9375 3.12649 15.5178 2.70676 15 2.70676ZM5.45643 10.2969C4.94712 10.2037 4.60978 9.71528 4.70297 9.20597C4.79616 8.69666 5.28458 8.35933 5.7939 8.45252C7.66696 8.79523 8.68521 10.0983 8.68521 12.0909V15.8885C8.68521 16.4062 8.26548 16.826 7.74771 16.826C7.22994 16.826 6.81021 16.4062 6.81021 15.8885V12.0909C6.81021 10.9798 6.41342 10.472 5.45643 10.2969ZM25.3575 9.20597C25.4506 9.71528 25.1133 10.2037 24.604 10.2969C23.647 10.472 23.2502 10.9798 23.2502 12.0909V15.8885C23.2502 16.4062 22.8305 16.826 22.3127 16.826C21.795 16.826 21.3752 16.4062 21.3752 15.8885V12.0909C21.3752 10.0983 22.3935 8.79523 24.2665 8.45252C24.7758 8.35933 25.2643 8.69666 25.3575 9.20597ZM9.13239 17.2867L10.6819 16.2309C11.55 17.5051 12.9524 18.1449 15 18.1449C17.061 18.1449 18.3615 17.6468 18.9996 16.7224L20.5427 17.7876C19.4989 19.2997 17.6186 20.0199 15 20.0199C12.368 20.0199 10.3751 19.1106 9.13239 17.2867Z" fill="#CF1225"/>
</g>
</g>
</svg>
