<svg width="30" height="23" viewBox="0 0 30 23" fill="none" xmlns="http://www.w3.org/2000/svg">
<mask id="mask0_667_1389" style="mask-type:luminance" maskUnits="userSpaceOnUse" x="0" y="0" width="30" height="23">
<rect width="30" height="22.5" fill="white"/>
</mask>
<g mask="url(#mask0_667_1389)">
<path fill-rule="evenodd" clip-rule="evenodd" d="M0 0H30V22.5H0V0Z" fill="#E31D1C"/>
<path fill-rule="evenodd" clip-rule="evenodd" d="M0 1.875V3.75H30V1.875H0ZM0 5.625V7.5H30V5.625H0ZM0 11.25V9.375H30V11.25H0ZM0 13.125V15H30V13.125H0ZM0 18.75V16.875H30V18.75H0ZM0 22.5V20.625H30V22.5H0Z" fill="#F7FCFF"/>
<rect width="16.875" height="13.125" fill="#2E42A5"/>
<path fill-rule="evenodd" clip-rule="evenodd" d="M1.95013 4.07578L2.94373 3.38366L3.71447 3.93853H3.27805L4.16055 4.71909L3.86248 5.81353H3.39562L2.94231 4.80835L2.55571 5.81353H1.40305L2.28555 6.59409L1.9501 7.82578L2.9437 7.13366L3.71443 7.68853H3.27805L4.16055 8.46909L3.86248 9.56353H3.39562L2.94231 8.55835L2.55571 9.56353H1.40305L2.28555 10.3441L1.9501 11.5758L2.9437 10.8837L3.90508 11.5758L3.60618 10.3441L4.37824 9.56353H4.02213L4.8187 9.00866L5.58943 9.56353H5.15305L6.03555 10.3441L5.7001 11.5758L6.6937 10.8837L7.65508 11.5758L7.35618 10.3441L8.12824 9.56353H7.77213L8.5687 9.00866L9.33943 9.56353H8.90305L9.78555 10.3441L9.4501 11.5758L10.4437 10.8837L11.4051 11.5758L11.1062 10.3441L11.8782 9.56353H11.5221L12.3187 9.00866L13.0894 9.56353H12.653L13.5355 10.3441L13.2001 11.5758L14.1937 10.8837L15.1551 11.5758L14.8562 10.3441L15.6282 9.56353H14.6456L14.1923 8.55835L13.8057 9.56353H13.2468L12.9812 8.46909L13.7532 7.68853H13.3971L14.1937 7.13366L15.1551 7.82578L14.8562 6.59409L15.6282 5.81353H14.6456L14.1923 4.80835L13.8057 5.81353H13.2468L12.9812 4.71909L13.7532 3.93853H13.3971L14.1937 3.38366L15.1551 4.07578L14.8562 2.84409L15.6282 2.06353H14.6456L14.1923 1.05835L13.8057 2.06353H12.653L13.5355 2.84409L13.2375 3.93853H12.7706L12.3173 2.93335L11.9307 3.93853H11.3718L11.1062 2.84409L11.8782 2.06353H10.8956L10.4423 1.05835L10.0557 2.06353H8.90305L9.78555 2.84409L9.48748 3.93853H9.02062L8.56731 2.93335L8.18071 3.93853H7.62177L7.35618 2.84409L8.12824 2.06353H7.14562L6.69231 1.05835L6.30571 2.06353H5.15305L6.03555 2.84409L5.73748 3.93853H5.27062L4.81731 2.93335L4.43071 3.93853H3.8718L3.60621 2.84409L4.37827 2.06353H3.39566L2.94234 1.05835L2.55574 2.06353H1.40308L2.28558 2.84409L1.95013 4.07578ZM13.2375 7.68853L13.5355 6.59409L12.653 5.81353H13.0894L12.3187 5.25866L11.5221 5.81353H11.8782L11.1062 6.59409L11.3718 7.68853H11.9307L12.3173 6.68335L12.7706 7.68853H13.2375ZM11.2144 7.68853L10.4437 7.13366L9.64713 7.68853H10.0032L9.23118 8.46909L9.49677 9.56353H10.0557L10.4423 8.55835L10.8956 9.56353H11.3625L11.6605 8.46909L10.778 7.68853H11.2144ZM7.91055 8.46909L7.61248 9.56353H7.14562L6.69231 8.55835L6.30571 9.56353H5.74677L5.48118 8.46909L6.25324 7.68853H5.89713L6.6937 7.13366L7.46443 7.68853H7.02805L7.91055 8.46909ZM8.18071 7.68853H7.62177L7.35618 6.59409L8.12824 5.81353H7.77213L8.5687 5.25866L9.33943 5.81353H8.90305L9.78555 6.59409L9.48748 7.68853H9.02062L8.56731 6.68335L8.18071 7.68853ZM5.73748 7.68853L6.03555 6.59409L5.15305 5.81353H5.58943L4.8187 5.25866L4.02213 5.81353H4.37824L3.60618 6.59409L3.87177 7.68853H4.43071L4.81731 6.68335L5.27062 7.68853H5.73748ZM11.6605 4.71909L11.3625 5.81353H10.8956L10.4423 4.80835L10.0557 5.81353H9.49677L9.23118 4.71909L10.0032 3.93853H9.64713L10.4437 3.38366L11.2144 3.93853H10.778L11.6605 4.71909ZM7.46443 3.93853L6.6937 3.38366L5.89713 3.93853H6.25324L5.48118 4.71909L5.74677 5.81353H6.30571L6.69231 4.80835L7.14562 5.81353H7.61248L7.91055 4.71909L7.02805 3.93853H7.46443Z" fill="#F7FCFF"/>
</g>
</svg>
