<svg width="31" height="23" viewBox="0 0 31 23" fill="none" xmlns="http://www.w3.org/2000/svg">
<mask id="mask0_667_1295" style="mask-type:luminance" maskUnits="userSpaceOnUse" x="0" y="0" width="31" height="23">
<rect width="30.3578" height="22.7683" fill="white"/>
</mask>
<g mask="url(#mask0_667_1295)">
<path fill-rule="evenodd" clip-rule="evenodd" d="M20.871 0H30.3578V22.7683H20.871V0Z" fill="#67BD38"/>
<path fill-rule="evenodd" clip-rule="evenodd" d="M9.48681 0H20.871V22.7683H9.48681V0Z" fill="#D51700"/>
<path fill-rule="evenodd" clip-rule="evenodd" d="M0 0H9.48681V22.7683H0V0Z" fill="#272727"/>
<path fill-rule="evenodd" clip-rule="evenodd" d="M9.48681 11.4789C9.48681 14.675 12.0777 17.2659 15.2738 17.2659C18.4698 17.2659 21.0607 14.675 21.0607 11.4789C21.0607 10.1644 20.6224 8.95223 19.884 7.98061L19.0438 10.5181C19.1219 10.8254 19.1634 11.1473 19.1634 11.4789C19.1634 12.7343 18.5686 13.8508 17.6456 14.5619V10.0561H17.0763C17.0763 9.00818 16.2268 8.1587 15.1789 8.1587C14.131 8.1587 13.2815 9.00818 13.2815 10.0561H12.7122V14.406C11.8982 13.6931 11.3842 12.646 11.3842 11.4789C11.3842 11.2229 11.4089 10.9727 11.4561 10.7306H11.384L10.681 7.95771C9.93203 8.93316 9.48681 10.154 9.48681 11.4789ZM14.6096 11.8665V15.312C14.8254 15.3492 15.0473 15.3685 15.2738 15.3685C15.4344 15.3685 15.5927 15.3588 15.7482 15.3399V11.8665C15.5685 11.923 15.3772 11.9534 15.1789 11.9534C14.9805 11.9534 14.7893 11.923 14.6096 11.8665Z" fill="#F7FCFF"/>
</g>
</svg>
