<svg width="40" height="29" viewBox="0 0 40 29" fill="none" xmlns="http://www.w3.org/2000/svg">
<rect width="40" height="29" fill="#FECF03"/>
<g clip-path="url(#clip0_668_3472)">
<rect x="0.595581" y="0.595582" width="13.6992" height="27.994" rx="1.19124" fill="#60B801"/>
<g filter="url(#filter0_d_668_3472)">
<g clip-path="url(#clip1_668_3472)">
<mask id="mask0_668_3472" style="mask-type:luminance" maskUnits="userSpaceOnUse" x="2" y="4" width="11" height="8">
<rect x="2.978" y="4.16934" width="9.52988" height="7.14741" fill="white"/>
</mask>
<g mask="url(#mask0_668_3472)">
<path fill-rule="evenodd" clip-rule="evenodd" d="M2.978 4.16934V11.3167H12.5079V4.16934H2.978Z" fill="#2E42A5"/>
<mask id="mask1_668_3472" style="mask-type:luminance" maskUnits="userSpaceOnUse" x="2" y="4" width="11" height="8">
<path fill-rule="evenodd" clip-rule="evenodd" d="M2.978 4.16934V11.3167H12.5079V4.16934H2.978Z" fill="white"/>
</mask>
<g mask="url(#mask1_668_3472)">
<mask id="mask2_668_3472" style="mask-type:luminance" maskUnits="userSpaceOnUse" x="2" y="4" width="11" height="8">
<rect x="2.978" y="4.16934" width="9.52988" height="7.14741" fill="white"/>
</mask>
<g mask="url(#mask2_668_3472)">
<path d="M1.91687 10.8061L4.01395 11.693L12.5555 5.1336L13.6616 3.81565L11.4191 3.51922L7.93523 6.34587L5.13106 8.25036L1.91687 10.8061Z" fill="white"/>
<path d="M2.20395 11.4275L3.27231 11.9422L13.2644 3.6932H11.7643L2.20395 11.4275Z" fill="#F50100"/>
<path d="M13.569 10.8061L11.472 11.693L2.93043 5.1336L1.82427 3.81565L4.06679 3.51922L7.55068 6.34587L10.3548 8.25036L13.569 10.8061Z" fill="white"/>
<path d="M13.4975 11.2521L12.4291 11.7668L8.17437 8.23494L6.91293 7.84034L1.71782 3.82016H3.21793L8.41012 7.74492L9.78928 8.21809L13.4975 11.2521Z" fill="#F50100"/>
<mask id="path-12-inside-1_668_3472" fill="white">
<path fill-rule="evenodd" clip-rule="evenodd" d="M8.86798 3.57372H6.61787V6.55181H2.39056V8.93428H6.61787V11.9124H8.86798V8.93428H13.1117V6.55181H8.86798V3.57372Z"/>
</mask>
<path fill-rule="evenodd" clip-rule="evenodd" d="M8.86798 3.57372H6.61787V6.55181H2.39056V8.93428H6.61787V11.9124H8.86798V8.93428H13.1117V6.55181H8.86798V3.57372Z" fill="#F50100"/>
<path d="M6.61787 3.57372V2.9781H6.02225V3.57372H6.61787ZM8.86798 3.57372H9.4636V2.9781H8.86798V3.57372ZM6.61787 6.55181V7.14743H7.21349V6.55181H6.61787ZM2.39056 6.55181V5.95619H1.79495V6.55181H2.39056ZM2.39056 8.93428H1.79495V9.5299H2.39056V8.93428ZM6.61787 8.93428H7.21349V8.33866H6.61787V8.93428ZM6.61787 11.9124H6.02225V12.508H6.61787V11.9124ZM8.86798 11.9124V12.508H9.4636V11.9124H8.86798ZM8.86798 8.93428V8.33866H8.27236V8.93428H8.86798ZM13.1117 8.93428V9.5299H13.7073V8.93428H13.1117ZM13.1117 6.55181H13.7073V5.95619H13.1117V6.55181ZM8.86798 6.55181H8.27236V7.14743H8.86798V6.55181ZM6.61787 4.16934H8.86798V2.9781H6.61787V4.16934ZM7.21349 6.55181V3.57372H6.02225V6.55181H7.21349ZM2.39056 7.14743H6.61787V5.95619H2.39056V7.14743ZM2.98618 8.93428V6.55181H1.79495V8.93428H2.98618ZM6.61787 8.33866H2.39056V9.5299H6.61787V8.33866ZM7.21349 11.9124V8.93428H6.02225V11.9124H7.21349ZM8.86798 11.3167H6.61787V12.508H8.86798V11.3167ZM8.27236 8.93428V11.9124H9.4636V8.93428H8.27236ZM13.1117 8.33866H8.86798V9.5299H13.1117V8.33866ZM12.5161 6.55181V8.93428H13.7073V6.55181H12.5161ZM8.86798 7.14743H13.1117V5.95619H8.86798V7.14743ZM8.27236 3.57372V6.55181H9.4636V3.57372H8.27236Z" fill="white" mask="url(#path-12-inside-1_668_3472)"/>
</g>
</g>
</g>
<rect x="2.978" y="4.16934" width="9.52988" height="7.14741" fill="url(#paint0_linear_668_3472)" style="mix-blend-mode:overlay"/>
</g>
<rect x="3.27581" y="4.46715" width="8.93426" height="6.55179" rx="0.297809" stroke="black" stroke-opacity="0.1" stroke-width="0.595618" style="mix-blend-mode:multiply"/>
</g>
</g>
<defs>
<filter id="filter0_d_668_3472" x="-0.0220032" y="3.16934" width="15.5299" height="13.1474" filterUnits="userSpaceOnUse" color-interpolation-filters="sRGB">
<feFlood flood-opacity="0" result="BackgroundImageFix"/>
<feColorMatrix in="SourceAlpha" type="matrix" values="0 0 0 0 0 0 0 0 0 0 0 0 0 0 0 0 0 0 127 0" result="hardAlpha"/>
<feOffset dy="2"/>
<feGaussianBlur stdDeviation="1.5"/>
<feColorMatrix type="matrix" values="0 0 0 0 0 0 0 0 0 0 0 0 0 0 0 0 0 0 0.1 0"/>
<feBlend mode="normal" in2="BackgroundImageFix" result="effect1_dropShadow_668_3472"/>
<feBlend mode="normal" in="SourceGraphic" in2="effect1_dropShadow_668_3472" result="shape"/>
</filter>
<linearGradient id="paint0_linear_668_3472" x1="7.74294" y1="4.16934" x2="7.74294" y2="11.3167" gradientUnits="userSpaceOnUse">
<stop stop-color="white" stop-opacity="0.7"/>
<stop offset="1" stop-opacity="0.3"/>
</linearGradient>
<clipPath id="clip0_668_3472">
<rect x="0.595581" y="0.595582" width="13.6992" height="27.994" rx="1.19124" fill="white"/>
</clipPath>
<clipPath id="clip1_668_3472">
<rect x="2.978" y="4.16934" width="9.52988" height="7.14741" rx="0.595618" fill="white"/>
</clipPath>
</defs>
</svg>
