<svg width="40" height="29" viewBox="0 0 40 29" fill="none" xmlns="http://www.w3.org/2000/svg">
<rect width="40" height="29" fill="#FECF03"/>
<rect x="7.14742" y="7.14741" width="20.251" height="14.2948" rx="1.19124" fill="#FECF03"/>
<g filter="url(#filter0_d_668_3456)">
<g clip-path="url(#clip0_668_3456)">
<mask id="mask0_668_3456" style="mask-type:luminance" maskUnits="userSpaceOnUse" x="3" y="4" width="11" height="8">
<rect x="3.57376" y="4.16932" width="9.52988" height="7.14741" fill="white"/>
</mask>
<g mask="url(#mask0_668_3456)">
<path fill-rule="evenodd" clip-rule="evenodd" d="M3.57376 4.16932V11.3167H13.1036V4.16932H3.57376Z" fill="#2E42A5"/>
<mask id="mask1_668_3456" style="mask-type:luminance" maskUnits="userSpaceOnUse" x="3" y="4" width="11" height="8">
<path fill-rule="evenodd" clip-rule="evenodd" d="M3.57376 4.16932V11.3167H13.1036V4.16932H3.57376Z" fill="white"/>
</mask>
<g mask="url(#mask1_668_3456)">
<mask id="mask2_668_3456" style="mask-type:luminance" maskUnits="userSpaceOnUse" x="3" y="4" width="11" height="8">
<rect x="3.57376" y="4.16932" width="9.52988" height="7.14741" fill="white"/>
</mask>
<g mask="url(#mask2_668_3456)">
<path d="M2.51262 10.8061L4.6097 11.693L13.1512 5.13358L14.2574 3.81563L12.0149 3.51921L8.53097 6.34585L5.72681 8.25035L2.51262 10.8061Z" fill="white"/>
<path d="M2.79971 11.4275L3.86808 11.9422L13.8602 3.69318H12.3601L2.79971 11.4275Z" fill="#F50100"/>
<path d="M14.1648 10.8061L12.0677 11.693L3.52618 5.13358L2.42002 3.81563L4.66254 3.51921L8.14642 6.34585L10.9506 8.25035L14.1648 10.8061Z" fill="white"/>
<path d="M14.0932 11.2521L13.0249 11.7667L8.77012 8.23493L7.50868 7.84033L2.31357 3.82015H3.81368L9.00587 7.74491L10.385 8.21808L14.0932 11.2521Z" fill="#F50100"/>
<mask id="path-12-inside-1_668_3456" fill="white">
<path fill-rule="evenodd" clip-rule="evenodd" d="M9.46375 3.5737H7.21364V6.55179H2.98634V8.93426H7.21364V11.9124H9.46375V8.93426H13.7075V6.55179H9.46375V3.5737Z"/>
</mask>
<path fill-rule="evenodd" clip-rule="evenodd" d="M9.46375 3.5737H7.21364V6.55179H2.98634V8.93426H7.21364V11.9124H9.46375V8.93426H13.7075V6.55179H9.46375V3.5737Z" fill="#F50100"/>
<path d="M7.21364 3.5737V2.97809H6.61802V3.5737H7.21364ZM9.46375 3.5737H10.0594V2.97809H9.46375V3.5737ZM7.21364 6.55179V7.14741H7.80926V6.55179H7.21364ZM2.98634 6.55179V5.95618H2.39073V6.55179H2.98634ZM2.98634 8.93426H2.39073V9.52988H2.98634V8.93426ZM7.21364 8.93426H7.80926V8.33865H7.21364V8.93426ZM7.21364 11.9124H6.61802V12.508H7.21364V11.9124ZM9.46375 11.9124V12.508H10.0594V11.9124H9.46375ZM9.46375 8.93426V8.33865H8.86813V8.93426H9.46375ZM13.7075 8.93426V9.52988H14.3031V8.93426H13.7075ZM13.7075 6.55179H14.3031V5.95618H13.7075V6.55179ZM9.46375 6.55179H8.86813V7.14741H9.46375V6.55179ZM7.21364 4.16932H9.46375V2.97809H7.21364V4.16932ZM7.80926 6.55179V3.5737H6.61802V6.55179H7.80926ZM2.98634 7.14741H7.21364V5.95618H2.98634V7.14741ZM3.58196 8.93426V6.55179H2.39073V8.93426H3.58196ZM7.21364 8.33865H2.98634V9.52988H7.21364V8.33865ZM7.80926 11.9124V8.93426H6.61802V11.9124H7.80926ZM9.46375 11.3167H7.21364V12.508H9.46375V11.3167ZM8.86813 8.93426V11.9124H10.0594V8.93426H8.86813ZM13.7075 8.33865H9.46375V9.52988H13.7075V8.33865ZM13.1118 6.55179V8.93426H14.3031V6.55179H13.1118ZM9.46375 7.14741H13.7075V5.95618H9.46375V7.14741ZM8.86813 3.5737V6.55179H10.0594V3.5737H8.86813Z" fill="white" mask="url(#path-12-inside-1_668_3456)"/>
</g>
</g>
</g>
<rect x="3.57376" y="4.16932" width="9.52988" height="7.14741" fill="url(#paint0_linear_668_3456)" style="mix-blend-mode:overlay"/>
</g>
<rect x="3.87157" y="4.46713" width="8.93426" height="6.55179" rx="0.297809" stroke="black" stroke-opacity="0.1" stroke-width="0.595618" style="mix-blend-mode:multiply"/>
</g>
<defs>
<filter id="filter0_d_668_3456" x="0.573761" y="3.16932" width="15.5299" height="13.1474" filterUnits="userSpaceOnUse" color-interpolation-filters="sRGB">
<feFlood flood-opacity="0" result="BackgroundImageFix"/>
<feColorMatrix in="SourceAlpha" type="matrix" values="0 0 0 0 0 0 0 0 0 0 0 0 0 0 0 0 0 0 127 0" result="hardAlpha"/>
<feOffset dy="2"/>
<feGaussianBlur stdDeviation="1.5"/>
<feColorMatrix type="matrix" values="0 0 0 0 0 0 0 0 0 0 0 0 0 0 0 0 0 0 0.1 0"/>
<feBlend mode="normal" in2="BackgroundImageFix" result="effect1_dropShadow_668_3456"/>
<feBlend mode="normal" in="SourceGraphic" in2="effect1_dropShadow_668_3456" result="shape"/>
</filter>
<linearGradient id="paint0_linear_668_3456" x1="8.3387" y1="4.16932" x2="8.3387" y2="11.3167" gradientUnits="userSpaceOnUse">
<stop stop-color="white" stop-opacity="0.7"/>
<stop offset="1" stop-opacity="0.3"/>
</linearGradient>
<clipPath id="clip0_668_3456">
<rect x="3.57376" y="4.16932" width="9.52988" height="7.14741" rx="0.595618" fill="white"/>
</clipPath>
</defs>
</svg>
