<svg width="40" height="29" viewBox="0 0 40 29" fill="none" xmlns="http://www.w3.org/2000/svg">
<rect width="40" height="29" fill="#FECF03"/>
<g clip-path="url(#clip0_668_3448)">
<rect x="0.595589" y="0.595567" width="13.6992" height="27.994" rx="1.19124" fill="#003B92"/>
<g filter="url(#filter0_d_668_3448)">
<g clip-path="url(#clip1_668_3448)">
<mask id="mask0_668_3448" style="mask-type:luminance" maskUnits="userSpaceOnUse" x="2" y="4" width="11" height="8">
<rect x="2.978" y="4.16931" width="9.52988" height="7.14741" fill="white"/>
</mask>
<g mask="url(#mask0_668_3448)">
<path fill-rule="evenodd" clip-rule="evenodd" d="M2.978 4.16931V11.3167H12.5079V4.16931H2.978Z" fill="#2E42A5"/>
<mask id="mask1_668_3448" style="mask-type:luminance" maskUnits="userSpaceOnUse" x="2" y="4" width="11" height="8">
<path fill-rule="evenodd" clip-rule="evenodd" d="M2.978 4.16931V11.3167H12.5079V4.16931H2.978Z" fill="white"/>
</mask>
<g mask="url(#mask1_668_3448)">
<mask id="mask2_668_3448" style="mask-type:luminance" maskUnits="userSpaceOnUse" x="2" y="4" width="11" height="8">
<rect x="2.978" y="4.16931" width="9.52988" height="7.14741" fill="white"/>
</mask>
<g mask="url(#mask2_668_3448)">
<path d="M1.91686 10.8061L4.01394 11.693L12.5555 5.13357L13.6616 3.81562L11.4191 3.51919L7.93522 6.34584L5.13105 8.25033L1.91686 10.8061Z" fill="white"/>
<path d="M2.20396 11.4275L3.27232 11.9422L13.2644 3.69317H11.7643L2.20396 11.4275Z" fill="#F50100"/>
<path d="M13.569 10.8061L11.4719 11.693L2.93041 5.13357L1.82425 3.81562L4.06678 3.51919L7.55066 6.34584L10.3548 8.25033L13.569 10.8061Z" fill="white"/>
<path d="M13.4975 11.2521L12.4291 11.7667L8.17436 8.23492L6.91292 7.84031L1.71782 3.82013H3.21792L8.41011 7.74489L9.78927 8.21806L13.4975 11.2521Z" fill="#F50100"/>
<mask id="path-12-inside-1_668_3448" fill="white">
<path fill-rule="evenodd" clip-rule="evenodd" d="M8.86799 3.57369H6.61788V6.55178H2.39058V8.93425H6.61788V11.9123H8.86799V8.93425H13.1117V6.55178H8.86799V3.57369Z"/>
</mask>
<path fill-rule="evenodd" clip-rule="evenodd" d="M8.86799 3.57369H6.61788V6.55178H2.39058V8.93425H6.61788V11.9123H8.86799V8.93425H13.1117V6.55178H8.86799V3.57369Z" fill="#F50100"/>
<path d="M6.61788 3.57369V2.97807H6.02226V3.57369H6.61788ZM8.86799 3.57369H9.46361V2.97807H8.86799V3.57369ZM6.61788 6.55178V7.1474H7.2135V6.55178H6.61788ZM2.39058 6.55178V5.95616H1.79496V6.55178H2.39058ZM2.39058 8.93425H1.79496V9.52987H2.39058V8.93425ZM6.61788 8.93425H7.2135V8.33863H6.61788V8.93425ZM6.61788 11.9123H6.02226V12.508H6.61788V11.9123ZM8.86799 11.9123V12.508H9.46361V11.9123H8.86799ZM8.86799 8.93425V8.33863H8.27237V8.93425H8.86799ZM13.1117 8.93425V9.52987H13.7073V8.93425H13.1117ZM13.1117 6.55178H13.7073V5.95616H13.1117V6.55178ZM8.86799 6.55178H8.27237V7.1474H8.86799V6.55178ZM6.61788 4.16931H8.86799V2.97807H6.61788V4.16931ZM7.2135 6.55178V3.57369H6.02226V6.55178H7.2135ZM2.39058 7.1474H6.61788V5.95616H2.39058V7.1474ZM2.9862 8.93425V6.55178H1.79496V8.93425H2.9862ZM6.61788 8.33863H2.39058V9.52987H6.61788V8.33863ZM7.2135 11.9123V8.93425H6.02226V11.9123H7.2135ZM8.86799 11.3167H6.61788V12.508H8.86799V11.3167ZM8.27237 8.93425V11.9123H9.46361V8.93425H8.27237ZM13.1117 8.33863H8.86799V9.52987H13.1117V8.33863ZM12.5161 6.55178V8.93425H13.7073V6.55178H12.5161ZM8.86799 7.1474H13.1117V5.95616H8.86799V7.1474ZM8.27237 3.57369V6.55178H9.46361V3.57369H8.27237Z" fill="white" mask="url(#path-12-inside-1_668_3448)"/>
</g>
</g>
</g>
<rect x="2.978" y="4.16931" width="9.52988" height="7.14741" fill="url(#paint0_linear_668_3448)" style="mix-blend-mode:overlay"/>
</g>
<rect x="3.27581" y="4.46712" width="8.93426" height="6.55179" rx="0.297809" stroke="black" stroke-opacity="0.1" stroke-width="0.595618" style="mix-blend-mode:multiply"/>
</g>
</g>
<defs>
<filter id="filter0_d_668_3448" x="-0.0220032" y="3.16931" width="15.5299" height="13.1474" filterUnits="userSpaceOnUse" color-interpolation-filters="sRGB">
<feFlood flood-opacity="0" result="BackgroundImageFix"/>
<feColorMatrix in="SourceAlpha" type="matrix" values="0 0 0 0 0 0 0 0 0 0 0 0 0 0 0 0 0 0 127 0" result="hardAlpha"/>
<feOffset dy="2"/>
<feGaussianBlur stdDeviation="1.5"/>
<feColorMatrix type="matrix" values="0 0 0 0 0 0 0 0 0 0 0 0 0 0 0 0 0 0 0.1 0"/>
<feBlend mode="normal" in2="BackgroundImageFix" result="effect1_dropShadow_668_3448"/>
<feBlend mode="normal" in="SourceGraphic" in2="effect1_dropShadow_668_3448" result="shape"/>
</filter>
<linearGradient id="paint0_linear_668_3448" x1="7.74294" y1="4.16931" x2="7.74294" y2="11.3167" gradientUnits="userSpaceOnUse">
<stop stop-color="white" stop-opacity="0.7"/>
<stop offset="1" stop-opacity="0.3"/>
</linearGradient>
<clipPath id="clip0_668_3448">
<rect x="0.595589" y="0.595567" width="13.6992" height="27.994" rx="1.19124" fill="white"/>
</clipPath>
<clipPath id="clip1_668_3448">
<rect x="2.978" y="4.16931" width="9.52988" height="7.14741" rx="0.595618" fill="white"/>
</clipPath>
</defs>
</svg>
