<svg width="40" height="29" viewBox="0 0 40 29" fill="none" xmlns="http://www.w3.org/2000/svg">
<rect width="40" height="29" fill="white"/>
<rect x="7.1474" y="7.14741" width="20.251" height="14.2948" rx="1.19124" fill="white"/>
<g filter="url(#filter0_d_668_3460)">
<g clip-path="url(#clip0_668_3460)">
<mask id="mask0_668_3460" style="mask-type:luminance" maskUnits="userSpaceOnUse" x="3" y="3" width="10" height="8">
<rect x="3" y="3" width="9.52988" height="7.14741" fill="white"/>
</mask>
<g mask="url(#mask0_668_3460)">
<path fill-rule="evenodd" clip-rule="evenodd" d="M3 3V10.1474H12.5299V3H3Z" fill="#2E42A5"/>
<mask id="mask1_668_3460" style="mask-type:luminance" maskUnits="userSpaceOnUse" x="3" y="3" width="10" height="8">
<path fill-rule="evenodd" clip-rule="evenodd" d="M3 3V10.1474H12.5299V3H3Z" fill="white"/>
</mask>
<g mask="url(#mask1_668_3460)">
<mask id="mask2_668_3460" style="mask-type:luminance" maskUnits="userSpaceOnUse" x="3" y="3" width="10" height="8">
<rect x="3" y="3" width="9.52988" height="7.14741" fill="white"/>
</mask>
<g mask="url(#mask2_668_3460)">
<path d="M1.93886 9.63679L4.03594 10.5237L12.5775 3.96426L13.6836 2.64631L11.4411 2.34989L7.95721 5.17653L5.15305 7.08103L1.93886 9.63679Z" fill="white"/>
<path d="M2.22595 10.2582L3.29432 10.7728L13.2864 2.52386H11.7863L2.22595 10.2582Z" fill="#F50100"/>
<path d="M13.591 9.63679L11.494 10.5237L2.95243 3.96426L1.84627 2.64631L4.08879 2.34989L7.57268 5.17653L10.3768 7.08103L13.591 9.63679Z" fill="white"/>
<path d="M13.5195 10.0827L12.4511 10.5974L8.19637 7.06561L6.93493 6.671L1.73983 2.65082H3.23993L8.43212 6.57558L9.81128 7.04875L13.5195 10.0827Z" fill="#F50100"/>
<mask id="path-12-inside-1_668_3460" fill="white">
<path fill-rule="evenodd" clip-rule="evenodd" d="M8.88999 2.40438H6.63988V5.38247H2.41258V7.76494H6.63988V10.743H8.88999V7.76494H13.1337V5.38247H8.88999V2.40438Z"/>
</mask>
<path fill-rule="evenodd" clip-rule="evenodd" d="M8.88999 2.40438H6.63988V5.38247H2.41258V7.76494H6.63988V10.743H8.88999V7.76494H13.1337V5.38247H8.88999V2.40438Z" fill="#F50100"/>
<path d="M6.63988 2.40438V1.80876H6.04426V2.40438H6.63988ZM8.88999 2.40438H9.48561V1.80876H8.88999V2.40438ZM6.63988 5.38247V5.97809H7.2355V5.38247H6.63988ZM2.41258 5.38247V4.78685H1.81696V5.38247H2.41258ZM2.41258 7.76494H1.81696V8.36056H2.41258V7.76494ZM6.63988 7.76494H7.2355V7.16932H6.63988V7.76494ZM6.63988 10.743H6.04426V11.3386H6.63988V10.743ZM8.88999 10.743V11.3386H9.48561V10.743H8.88999ZM8.88999 7.76494V7.16932H8.29437V7.76494H8.88999ZM13.1337 7.76494V8.36056H13.7293V7.76494H13.1337ZM13.1337 5.38247H13.7293V4.78685H13.1337V5.38247ZM8.88999 5.38247H8.29437V5.97809H8.88999V5.38247ZM6.63988 3H8.88999V1.80876H6.63988V3ZM7.2355 5.38247V2.40438H6.04426V5.38247H7.2355ZM2.41258 5.97809H6.63988V4.78685H2.41258V5.97809ZM3.0082 7.76494V5.38247H1.81696V7.76494H3.0082ZM6.63988 7.16932H2.41258V8.36056H6.63988V7.16932ZM7.2355 10.743V7.76494H6.04426V10.743H7.2355ZM8.88999 10.1474H6.63988V11.3386H8.88999V10.1474ZM8.29437 7.76494V10.743H9.48561V7.76494H8.29437ZM13.1337 7.16932H8.88999V8.36056H13.1337V7.16932ZM12.5381 5.38247V7.76494H13.7293V5.38247H12.5381ZM8.88999 5.97809H13.1337V4.78685H8.88999V5.97809ZM8.29437 2.40438V5.38247H9.48561V2.40438H8.29437Z" fill="white" mask="url(#path-12-inside-1_668_3460)"/>
</g>
</g>
</g>
<rect x="3" y="3" width="9.52988" height="7.14741" fill="url(#paint0_linear_668_3460)" style="mix-blend-mode:overlay"/>
</g>
<rect x="3.29781" y="3.29781" width="8.93426" height="6.55179" rx="0.297809" stroke="black" stroke-opacity="0.1" stroke-width="0.595618" style="mix-blend-mode:multiply"/>
</g>
<defs>
<filter id="filter0_d_668_3460" x="1.21315" y="2.40438" width="13.1036" height="10.7211" filterUnits="userSpaceOnUse" color-interpolation-filters="sRGB">
<feFlood flood-opacity="0" result="BackgroundImageFix"/>
<feColorMatrix in="SourceAlpha" type="matrix" values="0 0 0 0 0 0 0 0 0 0 0 0 0 0 0 0 0 0 127 0" result="hardAlpha"/>
<feOffset dy="1.19124"/>
<feGaussianBlur stdDeviation="0.893426"/>
<feColorMatrix type="matrix" values="0 0 0 0 0 0 0 0 0 0 0 0 0 0 0 0 0 0 0.1 0"/>
<feBlend mode="normal" in2="BackgroundImageFix" result="effect1_dropShadow_668_3460"/>
<feBlend mode="normal" in="SourceGraphic" in2="effect1_dropShadow_668_3460" result="shape"/>
</filter>
<linearGradient id="paint0_linear_668_3460" x1="7.76494" y1="3" x2="7.76494" y2="10.1474" gradientUnits="userSpaceOnUse">
<stop stop-color="white" stop-opacity="0.7"/>
<stop offset="1" stop-opacity="0.3"/>
</linearGradient>
<clipPath id="clip0_668_3460">
<rect x="3" y="3" width="9.52988" height="7.14741" rx="0.595618" fill="white"/>
</clipPath>
</defs>
</svg>
