<svg width="24" height="24" viewBox="0 0 24 24" fill="none" xmlns="http://www.w3.org/2000/svg">
<path d="M23.9599 9.10387C23.8706 8.83725 23.6396 8.643 23.3617 8.60025L15.984 7.473L12.6784 0.43125C12.5546 0.168 12.2899 0 11.9992 0C11.7086 0 11.4442 0.168 11.3201 0.43125L8.01449 7.473L0.636737 8.60062C0.358862 8.643 0.128237 8.83762 0.0386119 9.10425C-0.0506381 9.3705 0.0164869 9.6645 0.212987 9.86587L5.57324 15.3622L4.30649 23.1262C4.25999 23.4097 4.37961 23.6951 4.61474 23.8601C4.74374 23.9512 4.89486 23.9974 5.04636 23.9974C5.17086 23.9974 5.29611 23.9659 5.40936 23.9036L11.9989 20.259L18.5884 23.9036C18.7016 23.9659 18.8269 23.9974 18.9514 23.9974C19.1029 23.9974 19.2544 23.9512 19.383 23.8601C19.6181 23.6951 19.7377 23.4097 19.6912 23.1262L18.4245 15.3622L23.7847 9.86587C23.9816 9.66412 24.0491 9.37012 23.9599 9.10387Z" fill="#FEC20A"/>
</svg>
