<svg width="24" height="24" viewBox="0 0 24 24" fill="none" xmlns="http://www.w3.org/2000/svg">
<path d="M14.6667 23.3333V20.6C16.6667 20.0222 18.2778 18.9111 19.5 17.2667C20.7222 15.6222 21.3333 13.7556 21.3333 11.6667C21.3333 9.57778 20.7222 7.71111 19.5 6.06667C18.2778 4.42222 16.6667 3.31111 14.6667 2.73333V0C17.4222 0.622222 19.6667 2.01689 21.4 4.184C23.1333 6.35111 24 8.84533 24 11.6667C24 14.488 23.1333 16.9827 21.4 19.1507C19.6667 21.3187 17.4222 22.7129 14.6667 23.3333ZM0 15.7V7.7H5.33333L12 1.03333V22.3667L5.33333 15.7H0ZM14.6667 17.0333V6.3C15.7111 6.78889 16.528 7.52222 17.1173 8.5C17.7067 9.47778 18.0009 10.5444 18 11.7C18 12.8333 17.7053 13.8836 17.116 14.8507C16.5267 15.8178 15.7102 16.5453 14.6667 17.0333Z" fill="white"/>
</svg>
